<?xml version="1.0" encoding="iso-8859-1"?>
<!-- Generator: Adobe Illustrator 19.0.0, SVG Export Plug-In . SVG Version: 6.00 Build 0)  -->
<svg version="1.1" id="Layer_1" xmlns="http://www.w3.org/2000/svg" xmlns:xlink="http://www.w3.org/1999/xlink" x="0px" y="0px"
	 viewBox="0 0 508 508" style="enable-background:new 0 0 508 508;" xml:space="preserve">
<g>
	<path style="fill:#E8BB85;" d="M502,254c0-62.4-23.2-119.2-61.2-162.8l53.6,224C499.2,295.6,502,275.2,502,254z"/>
	<path style="fill:#E8BB85;" d="M16.4,186.8L16.4,186.8c0.4,0,0.8-0.4,1.2-0.8c1.6-1.6,1.6-3.6,2.4-6.8c0.4-1.6,0.8-4,1.2-6.4
		c2-7.2,6.8-16.4,13.6-20c2.4-1.2,3.6-3.6,4.8-7.2c1.2-3.2,2.8-7.2,6.4-11.2c2.8-3.6,5.2-6.8,6.8-9.2c2.4-3.6,4-5.6,6-6.8
		c0.8-0.4,2.8-2.4,4.4-4.4c4-4.4,9.6-9.6,14-11.2c3.6-1.2,4.8-1.2,6-0.4l0,0l49.2-62.8c-0.4-0.4-0.8-0.8-0.8-1.2l0,0
		c-56.4,32-98.8,85.2-116.8,148.8C15.6,186.8,16,186.8,16.4,186.8z"/>
</g>
<path style="fill:#73BADD;" d="M477.6,306.8c-2.4-4.8-5.6-8.4-8.8-9.2c-1.6-0.4-3.2-0.4-4.8,0.8c-2,1.2-4,1.6-6,0.8
	c-3.2-1.2-4.4-4.8-6-7.6c-0.8-1.6-1.6-4.4-2.4-4.4c-2-0.4-2.4,0.4-2.4,0.4c-1.2,1.2-1.2,4.8,0.8,12c1.6,5.2,3.6,8.4,5.6,9.2
	c1.6,0.4,3.6,0,6-1.2c2.8-1.6,6.4-1.2,9.2,1.2c5.6,4.4,8.8,14.4,7.2,20.8c-3.2,10.8-35.2,31.2-55.2,32.4c-10.4,0.8-14.4-4-16.4-7.6
	c-3.2-7.2-2.4-20-1.6-33.2c1.2-24,2.8-51.2-18-52.8c-0.4,0-0.8,0-1.2,0c0.4,0.8,1.2,3.2,2,4.8c4.8,10.8,16.4,36.4,5.6,83.6
	c-0.8,4.4-0.4,8,2,11.2c3.6,4.8,12,8,22.4,8.8c3.6,0.4,6.4,3.2,6.4,6.8c0,7.2-9.2,16.8-35.2,19.6c-12.8,1.2-28,11.6-45.6,23.2
	c-26,17.6-55.6,37.2-90,37.2c-8,0-14.4-4.8-17.2-13.2c-3.2-9.2-1.2-22.4,8.8-30c2.4-2,8.8-18,7.2-29.6c-0.8-5.2-3.2-8.8-7.6-10.4
	c-6-2-4.8-9.6-4-16.4c0.8-6.4,1.6-11.2-1.2-12c-2-0.4-4-1.2-6-1.6c-8-1.6-18-3.6-19.2-19.2c-0.8-11.2-6.8-12.4-24-15.2
	c-5.6-0.8-12-1.6-19.2-3.2c-10.4-2-18-8.8-22.4-18.8c-6.4-14.8-4.4-34.4,2-44.8c11.6-20,28.4-26.8,39.6-31.6
	c6.4-2.8,7.2-6.8,8.4-11.6c0.8-3.2,1.2-6.4,3.6-9.6c3.6-4.8,10-8.8,14.8-11.6c2.4-1.2,4.8-2.8,5.2-3.6c0.8-0.8,0.8-1.2-2.8-4.4
	l-0.8-0.8c-2.8-2.4-4.4-9.2-4.4-16.4c0-5.6,1.2-16,8.8-22.8c8.4-7.2,13.6-4,19.2-0.4c2,1.2,4,2.4,6,3.6c2.4,1.2,4.4,1.2,5.6,0.8
	c2.4-1.2,3.2-4.4,4-7.2v-0.4c0.4-0.8-2.8-3.6-4.4-4.8c-3.6-3.2-8.4-7.6-4.8-12c2.4-2.8,4.4-2,6.8-1.2c1.2,0.4,2.8,0.8,4.8,1.2
	c4.8,0.8,8.4-0.4,10-1.2c-1.2-0.4-4.4-1.2-10.4-1.2c-2,0-8.4,0-9.6-4.4c-0.8-3.6,3.6-7.6,6.8-8.8c1.6-0.8,5.2-4,5.6-6.4
	c0-0.4,0-0.8-0.8-1.2c-0.4,0-2.4,2-4,3.2c-4.4,4-11.2,10-18.4,4.8c-2.4-1.6-3.2-4.8-2.4-8c1.2-5.2,6.4-8.8,13.6-10
	c2.8-0.4,4.4,0.8,6,2c0.4,0.4,0.8,0.8,1.2,0.8l0,0c0-0.4-0.8-1.6-1.2-2.4c-0.4-1.2-1.2-2.4-1.6-4c-0.8-2.4,0.4-4.8,3.2-6
	c4.8-2.4,16-0.8,18,2c2.4,3.2,2.4,6-0.8,10.4c-1.6,2.4-0.8,3.6,2.8,7.2c4.8,4.4,6.8,8,6.8,11.2s-2,5.2-3.6,6.4
	c-0.4,0.4-1.2,1.2-1.2,1.2c0,0.8,0.4,0.8,0.4,0.8c0.8,0.4,4.8-1.6,7.6-2.8c5.2-2.4,11.6-5.6,17.6-4.4c1.2,0.4,1.6,0,1.6,0
	c0-0.4-1.2-2.8-1.6-3.6c-0.4-1.2-0.8-2-1.2-2.8c-0.4-2,0-4,1.2-6c1.6-2,3.6-2.8,6-2.8c0.4,0,0.8,0,1.2-0.4h-0.4
	c-3.6,0.8-7.6-0.4-10.4-3.2c-2.8-2.8-4-6.4-3.6-10c1.6-9.2,12.4-10.4,18.8-10.8h2c1.6,0,4-0.8,6.8-2c8-2.4,20-6.4,31.6-4
	c8,1.6,18,6.8,26.8,11.2c8.4,4.4,17.2,8.8,20.4,8.4h0.4c-0.8-0.8-1.6-2-1.2-3.6c0-1.2,0.8-2,2.4-2.8c3.6-2,7.6-0.8,10,0.8
	c2,1.2,4,3.6,3.6,5.6c0,1.2-1.2,2.4-2.4,3.2c-0.4,0-0.8,0.4-0.8,1.2c0.4,2,3.2,5.6,9.6,6.8c1.6,0.4,2.4-0.4,3.6-1.2
	c1.2-1.2,3.2-2.8,6.4-1.6c0.4-0.4,0.8-0.8,1.2-1.2C390.4,37.2,325.2,6,252.8,6c-42,0-81.6,10.4-116.4,29.2c3.2-0.8,6-1.2,7.6,0.4
	c0.4,0.4,1.2,1.6,0.8,3.2c0,0.8-0.4,1.6-1.2,2c2-0.8,3.6-0.8,4.4,0.4c1.2,1.6-0.4,3.2-1.2,4c-1.6,2-3.6,4-5.2,5.6
	c-2,2-3.6,3.6-4.4,4.8c-1.2,1.6-2,6.8-2,8.8c0.4,3.2-3.6,9.6-7.6,12.4L126,78c0.8,0,1.2,0,1.6,0.8c1.2,1.6,0,3.2-1.6,5.6
	c-3.6,5.2-8.8,11.6-13.2,12.4c-1.6,0.4-2.4,0-3.2-0.4c-0.4-0.4-1.6-0.8-2.8-0.8c-1.2-0.4-2.4-0.4-3.6-1.2l0,0l-0.8,1.6
	c-3.6,6-8.8,8-16.4,9.6c-4,0.8-5.2,0.4-6.4,0c0,0-0.4,0-1.2,0l-56.4,72c0,0.8-0.4,1.2-0.4,2c-0.8,3.6-1.2,6.4-3.6,8.8
	c-2,2-3.2,2.8-4.4,3.2h-0.4c-0.4,0-1.2-0.4-1.6-0.8l0,0c-5.2,20-8,41.2-8,62.8c0,136.8,111.2,248,248,248
	c113.6,0,209.2-76.4,238.8-180.8C489.2,320,482.4,316.8,477.6,306.8z M249.6,69.6L249.6,69.6c-4,0-8.8-0.8-14-1.6
	c-4-0.8-6-2.4-6-4.8c0-3.2,4-5.6,5.6-6c2-0.4,3.6-0.8,5.6-0.8c6.4,0,12.8,2.8,15.6,5.6c1.2,1.2,1.6,2.4,1.6,3.6
	C258,69.6,251.6,69.6,249.6,69.6z M180.4,50.4c0.8-0.4,1.6-1.2,2-1.6c2.8-2,6.4-2.8,10.8-4c3.2-0.8,6.4-1.6,10.4-2.8
	c0.4,0,0.8-0.4,1.2-0.4c-0.4-0.4-0.8-0.8-0.8-1.6c0-0.4,0-1.6,1.2-2.4c0.4-0.4,0.8-0.8,1.6-1.2c2.4-2,5.6-5.2,10.8-6
	c3.6-0.4,5.6-0.4,8,0c1.6,0.4,4,0.8,8,0.8c8,0.4,10,4.4,11.6,7.6c0.4,1.2,1.2,2.4,2,3.6c1.6,2,9.2,2.8,15.6,3.2
	c5.6,0.4,11.2,0.8,16,2.4c2,0.4,2,2,2,2.4c-0.4,2.4-0.4,2.8-38.4,5.2c-9.6,0.4-18.4,1.2-22.4,1.6c-12.4,1.2-28.8,4.8-34,7.2
	c-2.8,1.2-5.2,1.6-8,1.6c-3.2,0-6-0.8-8-2.8c-0.8-0.8-1.2-1.6-1.2-2.4C169.6,58,174.4,54.4,180.4,50.4z M301.2,476.8
	c-1.2,0.4-2.4,0.4-3.2,0.4c-2,0-2.8-1.2-2.8-1.6c-0.8-2.4,1.2-4.4,8.4-9.6c2-1.6,4.4-3.2,5.2-4.4c2.4-2.4,9.6-8,21.2-8
	c1.6,0,3.6,0,5.2,0.4c3.6,0.4,4.4,2,4.4,3.2C340.4,463.6,307.2,475.6,301.2,476.8z"/>
<g>
	<path style="fill:#FF9999;" d="M106.4,86.8C106.4,86.8,106,86.8,106.4,86.8l-0.8-0.4c-0.4-0.4-1.2-0.4-1.6-0.8
		c0,0.4-0.4,0.4-0.8,0.8c-1.6,1.6-3.2,4.4-4,6c1.6-0.4,2.4-0.8,3.2-1.2c0,0,0.4,0,0.4-0.4C103.6,89.2,104.8,88,106.4,86.8z"/>
	<path style="fill:#FF9999;" d="M330.4,457.2c-10.4,0-16.4,4.8-18.4,7.2c-1.2,1.2-3.6,3.2-5.6,4.8c-1.2,1.2-3.2,2.4-4.4,3.6
		c10-2.4,30-11.2,34-15.2h-0.4C333.6,457.2,332,457.2,330.4,457.2z"/>
	<path style="fill:#FF9999;" d="M335.6,453.6c-1.6-0.4-3.6-0.4-5.2-0.4c-12,0-18.8,5.6-21.2,8c-1.2,1.2-3.2,2.8-5.2,4.4
		c-6.8,5.6-9.2,7.2-8.4,9.6c0.4,0.8,0.8,1.6,2.8,1.6c0.8,0,1.6,0,3.2-0.4c6-1.2,38.8-13.2,38.8-20C340,455.6,339.2,454,335.6,453.6z
		 M300.8,474.8c-10.8,2.4,5.2-7.6,9.6-12c4.4-4.4,12.8-8.8,24.8-7.2C348,457.2,312,472.4,300.8,474.8z"/>
	<path style="fill:#FF9999;" d="M335.2,455.6c-12.4-1.6-20.8,2.8-24.8,7.2c-4.4,4.4-20.4,14.4-9.6,12
		C312,472.4,348,457.2,335.2,455.6z M301.6,472.8c1.6-1.2,3.2-2.8,4.4-3.6c2.4-2,4.4-3.6,5.6-4.8c2-2,8-7.2,18.4-7.2
		c1.6,0,3.2,0,4.8,0.4h0.4C331.6,461.2,311.2,470,301.6,472.8z"/>
</g>
<path style="fill:#E8BB85;" d="M435.2,92c-2-0.8-2-0.8-3.6,0.4c-1.2,1.2-3.2,2.8-6.8,2c-8-1.2-12.4-6.4-12.8-10.4
	c-0.4-2.4,0.8-4.4,3.2-5.2c0,0-0.8-1.2-2.4-2c-0.8-0.4-3.2-1.6-5.2-0.4c0,0,0,0-0.4,0c0,0.4,0.4,0.4,0.4,0.8c0.8,0.8,2,2,1.2,3.6
	s-2.4,2-4.8,2.4c-4.8,0.8-12.8-3.6-22.8-8.8c-8.8-4.4-18.4-9.6-25.6-10.8c-10.4-2-22,1.6-29.6,4c-3.2,1.2-6,2-7.6,2
	c-0.8,0-1.2,0-2,0c-7.6,0.8-14.4,1.6-15.2,7.6c-0.4,3.2,1.2,5.6,2.4,6.8c2,2,4.8,2.8,6.8,2.4s4.4-0.8,5.6,1.2c0.8,0.8,0.8,2,0.4,3.2
	c-0.8,2-3.6,3.6-6,3.6c-1.2,0-2.4,0.4-3.2,1.6c-0.4,0.4-0.8,1.2-0.4,2.4c0,0.8,0.4,1.6,0.8,2.4c1.2,2.8,2.4,5.6,0.8,8
	c-1.6,2-4.4,1.6-5.2,1.2c-4.4-0.8-10.4,2-15.2,4.4s-8.8,4-11.2,2.4c-1.2-0.8-2-2.4-2-4.4s1.2-3.2,2.8-4.4c1.6-1.2,2.4-2,2.4-3.6
	c0-1.2-0.8-4-5.6-8.4c-3.6-3.2-7.2-6.8-3.6-12.4c2.4-3.6,2-4,0.8-5.6c-1.2-0.8-10.4-2.4-13.6-0.4c-0.4,0.4-0.8,0.8-0.4,1.2
	c0.4,0.8,0.8,2,1.2,3.2c1.2,2.4,2.4,5.2,0.4,6.8c-2.8,2.4-5.2,0.8-6.4-0.4c-1.2-0.8-1.6-1.2-2.8-1.2c-8.4,1.6-10,6-10.4,7.2
	c-0.4,1.6,0,3.2,0.8,3.6c4,3.2,8.4,0,13.2-4.8c3.2-2.8,6-5.2,8.8-3.6c2,1.2,2.8,2.8,2.8,4.8c-0.4,4-5.2,8.4-8,9.6
	c-2.4,1.2-4.8,3.6-4.8,4.4c0,0,1.2,1.2,5.6,1.2c12.4,0,14,2.8,14.4,3.6c0.4,1.2,0.4,2.4-0.4,3.2c-2,2.8-8,4-14.4,3.2
	c-2.4-0.4-4-0.8-5.2-1.2c-2-0.4-2-0.8-2.4,0c-1.2,1.2,0.4,3.2,4.4,6.4c3.2,2.8,6.4,5.6,5.2,9.2v0.4c-1.2,3.2-2.4,8-6.4,9.6
	c-2.4,1.2-5.6,0.8-8.8-0.8c-2.4-1.2-4.8-2.4-6.8-3.6c-5.2-3.2-8.4-5.2-14.4,0c-6.4,5.6-7.2,14.8-7.2,19.6c0,6.8,1.6,12.4,3.2,13.6
	l0.8,0.8c3.6,2.8,6.4,5.6,3.2,9.6c-1.2,1.2-3.2,2.8-6.4,4.8c-4.4,2.8-10.4,6.4-13.6,10.8c-1.6,2.4-2.4,5.2-2.8,8
	c-1.2,5.2-2.4,10.8-10.8,14.4c-10.8,4.4-26.8,11.2-38,30c-5.6,9.2-7.6,27.6-1.6,41.2c4,8.8,10.4,14.4,19.6,16.4
	c7.2,1.6,13.6,2.4,18.8,3.2c16.4,2.4,26.4,3.6,27.6,18.8c0.8,12.4,8,14,16,15.6c2,0.4,4.4,0.8,6.4,1.6c6.4,2,5.2,9.6,4,16.4
	c-0.8,6.4-1.6,10.8,1.2,12c5.6,2,8.8,6.4,10,13.2c2,12.8-4.8,30.4-8.8,33.2c-8.4,6.4-10,17.6-7.2,25.2c2.4,6.8,7.2,10.4,13.6,10.4
	c33.2,0,62-19.6,87.6-36.8c18-12,33.6-22.4,47.6-24c25.2-2.4,31.6-11.2,31.6-15.2c0-1.6-1.2-2.8-2.8-2.8
	c-6.8-0.4-19.6-2.4-25.2-10.4c-2.8-4-4-8.8-2.8-14.4c10.4-46-0.4-70-5.2-81.2c-2-4.4-3.2-7.2-1.6-8.8c1.2-1.6,3.2-1.6,4.8-1.6
	c24.8,1.6,23.2,32,22,56.8c-0.8,12.8-1.2,24.8,1.6,31.2c1.6,4,6,5.6,12.4,5.2c19.2-1.2,49.2-21.2,51.6-29.6c1.2-4.8-1.6-13.2-6-16.8
	c-2.4-2-4.4-1.2-4.8-0.8c-3.6,2-6.8,2.4-9.6,1.2c-3.2-1.2-5.6-4.8-7.6-11.6c-2.4-8-2.4-13.2,0-16c0.8-1.2,2.8-2.4,6.4-1.6
	c2.8,0.4,4.4,3.6,5.6,6.8c0.8,2.4,2,5.2,3.6,5.6c0.8,0.4,1.6,0,2.8-0.8c2.4-1.6,5.2-1.6,8-0.8c6,2,9.6,8.4,11.2,11.2
	c4.4,8.4,10,11.6,12.8,12.4c0.4-0.8,0.4-1.6,0.8-2.4l-53.6-224c-0.4-0.4-0.8-1.2-1.2-1.6c-0.4,0.8-1.2,1.2-2,2
	C436.8,92.4,436,92.4,435.2,92z M390.4,246.8c-3.2,3.2-7.2,4.8-12.4,4.8s-10-4-16-8.8c-6.8-5.6-14.4-11.6-23.2-11.6
	c-2.4,0-3.2,0.8-4.4,3.2c-1.2,1.6-2.4,3.6-5.2,5.6c-3.2,2.4-7.2,2-10.4-1.6c-2.8-3.2-4-8-3.2-12.4c0.4-1.6-2.8-2.4-7.6-3.6
	c-6.8-2-16-4.4-16-13.6c0-4.4-0.8-9.2-8-12.4c-8-4-22.4-5.6-44-5.6c-6.4,0-10-1.2-11.6-3.2c-0.8-0.8-1.2-2.4-0.4-4.8
	c1.6-3.6,5.6-4,10.4-4.4c2.8,0,5.6-0.4,8.8-0.8c6-1.2,6-3.6,5.2-7.2c0-0.8,0-1.6-0.4-2c0-2.8,0-6,2.4-8c2.8-2.8,7.2-2.8,14.8,0
	c3.2,1.2,4.4,0.4,6.4-2.4c1.2-1.6,2.4-3.6,4.8-4.4c1.6-0.8,3.2-0.8,4.8-0.8c10,0,19.2,11.2,21.6,14.8c2.4,3.2,4.8,8.4,6.8,13.6
	c2,4.4,4.8,11.6,6.4,12h0.4c2,0,5.2-2,7.6-5.6c0.4-1.6-4.4-8.4-7.2-12.8c-6-8.8-10.8-16-6.8-19.2c1.2-0.8,2.4-1.2,4-1.2
	c3.2,0,11.2,2.4,18,22.8c1.2,3.2,2,11.6,2,26c0,2.8,0.8,4.8,2,6c1.6,1.6,3.2,1.6,4.4,1.6s2-0.4,2.8-0.8s1.2-4.4,1.2-6.4
	c0.4-5.2,1.2-12.8,8-12.8l0,0c2,0,3.2,0.8,4.4,2c2.4,2.8,2.4,8,2,13.2c0,1.6-0.4,3.6-0.4,5.2c0,11.6,16.8,11.6,16.8,11.6
	c9.2,0,14,7.6,14,14.8C394.4,240.4,393.2,244.4,390.4,246.8z M419.2,208c-0.4,0-0.8,0-1.2,0l0,0c-3.6,0-8-3.2-12.8-6.4
	c-2.8-2-6-4.4-8.8-5.6c-2.4-1.2-3.6-1.2-4-1.2c-0.8,0-1.6,0-2.4,0.4c-1.6,0.4-3.2,0.8-5.6,0.8c-2,0-4-0.4-6.4-0.8
	c-5.6-1.2-9.2-5.2-9.2-11.2c0-6.4,4-14,10-15.6c6.8-1.6,11.2,1.6,16.8,8.8c2.4,2.8,5.6,2.8,10.8,2.8c2.4,0,4.8,0,7.6,0.4
	c7.2,0.8,12,6,12,13.6C426.4,200,423.2,207.2,419.2,208z M443.6,185.2c1.6-2,4-2.8,8-2.8c2,0,4,0.4,5.2,0.4c4.4,0.8,7.2,3.6,7.2,6.8
	c0,2-2,4.4-6.4,4.8c0.4,2,3.2,7.2,5.2,10.8c4.4,8,9.2,17.2,8.4,23.6c-1.2,8.8-5.2,14-10,14c-1.6,0-3.2-0.4-4.8-1.6
	c-7.6-4.8-6.4-8.8-4.4-15.2l0.8-2c1.2-3.6-1.6-9.6-4-16c-2-5.2-4.4-10.4-5.6-15.6C441.6,189.6,442,187.2,443.6,185.2z"/>
<g>
	<path style="fill:#FF9999;" d="M440.4,88.8c-0.4,0.4-0.4,0.4-0.8,0.8c0.4,0.4,0.8,1.2,1.2,1.6L440.4,88.8z"/>
	<path style="fill:#FF9999;" d="M494.4,317.6c0.4,0,0.4-0.4,0.8-0.4l-0.4-2.4c-0.4,0.8-0.4,1.6-0.8,2.4
		C494,317.6,494,317.6,494.4,317.6z"/>
</g>
<path style="fill:#E8BB85;" d="M87.2,102c5.6-1.2,9.6-2.4,12.4-5.6c-2.4,0.4-3.2-0.8-3.6-1.6c-2-3.6,4-10.4,4.8-11.2
	c0.4-0.4,0.4-0.4,0.4-0.8c1.6-2.4,3.2-1.6,6.4-0.4l0.4,0.4c0,0,0,0,0-0.4c0.4-1.6,1.2-5.2,6-5.6c1.2,0,4-0.4,4.8,2s-1.2,4-6.8,8.4
	l-2.8,2.4c-1.2,0.8-1.6,1.6-2,2c0.8,0.4,1.6,0.4,2.4,0.8c1.6,0.4,2.8,0.8,4,1.2c1.2,0.4,5.6-2.8,10-10c-0.4,0-1.2,0-1.6,0
	c-1.6-0.4-2-1.6-2-2.4c-0.4-2,2-3.6,5.2-6l1.6-1.2c3.2-2.4,6-8,6-9.2c0-2,0.4-8.8,2.8-11.6c1.2-1.2,2.8-3.2,4.8-5.2
	c0.8-0.8,1.6-1.6,2.4-2.4c-1.6,0.4-3.2,0.8-4.4,0.4c-1.6,0-2.4-0.8-2.8-2c-0.4-1.6,1.2-2.4,2.8-3.6c0.8-0.4,2.4-1.2,2.8-2
	c-1.2,0-3.6,0.8-4.8,0.8l-2,0.4c-0.4,0-1.2,0-1.6-0.4L83.6,102C84,102.4,84.4,102.8,87.2,102z"/>
<path style="fill:#FF9999;" d="M66.4,116.8c-2.4,2.8-4,4.4-5.2,4.8c-1.2,0.8-2.8,2.8-4.8,6c-2,2.4-4,6-7.2,9.6
	c-2.8,3.6-4.4,7.2-5.6,10.4c-1.6,4-3.2,7.6-6.8,9.2c-5.2,2.8-9.6,10.8-11.6,17.2c-0.4,1.6-0.8,2.8-0.8,4l56.4-72
	c-0.4,0-0.8,0.4-2,0.4C75.2,108,70,113.2,66.4,116.8z"/>
<g>
	<path style="fill:#CDEEF9;" d="M451.2,206.8c3.2,7.2,6,13.6,4.4,18.8l-0.8,2c-2,6-2.4,7.2,2.8,10.4c1.2,0.8,2,0.8,2.8,0.8
		c3.2,0,5.2-5.2,6-10.8c0.8-4.8-4-13.6-8-21.2c-4.4-8.4-6.8-12.8-5.2-15.2c0.4-0.4,1.2-1.6,3.2-1.6s2.8-0.4,2.8-0.8
		c0-0.8-1.2-2-3.2-2.4h-0.4c-1.2,0-2.8-0.4-4.4-0.4s-4,0.4-4.8,1.6c-0.8,0.8-0.8,2-0.4,4C447.2,196.8,449.2,202,451.2,206.8z"/>
	<path style="fill:#CDEEF9;" d="M413.6,184c-2.4-0.4-4.8-0.4-7.2-0.4c-5.6,0-10.4,0-14-4.4c-4.8-6-7.6-8.4-12.8-7.2
		c-3.6,0.8-7.2,6.4-6.8,11.6c0,2.4,0.8,6.4,6,7.6c2,0.4,4,0.4,5.6,0.4c2,0,3.6-0.4,4.8-0.8s2-0.4,3.6-0.4c2,0,3.6,0.4,6,1.6
		c3.2,1.6,6,4,9.2,6c4,2.8,8,5.6,10.4,5.6l0,0h0.4c1.2-0.4,3.6-4.8,3.6-10.4C422,190,420.4,185.2,413.6,184z"/>
</g>
<path style="fill:#73BADD;" d="M380.8,226c-7.2,0-20.8-3.2-20.8-15.6c0-1.6,0-3.2,0.4-5.2c0.4-4,0.4-8.8-0.8-10
	c-0.4-0.4-0.4-0.4-1.2-0.4c-2.8,0-3.6,2.8-4,8.8c-0.4,4-0.8,7.6-3.2,8.8c-1.2,0.8-3.2,1.2-4.8,1.2c-2.8,0-5.2-0.8-6.8-2.8
	c-1.6-1.6-3.2-4.4-3.2-9.2c0-13.2-0.8-21.6-2-24.8c-4.8-14.8-10.8-20-14-20c-0.8,0-1.2,0-1.6,0.4c-0.4,1.6,4.8,9.6,7.6,13.6
	c6,8.8,9.2,14,7.2,17.2c-3.2,5.2-9.2,8.4-12.8,7.2c-3.2-1.2-5.2-6-8.8-14.4c-2-4.8-4.4-10-6.4-12.8c-5.6-7.6-15.2-15.2-21.6-12.4
	c-1.2,0.8-2.4,2-3.2,3.2c-1.6,2-3.2,4.4-6.8,4.4c-1.2,0-2.4-0.4-4-0.8c-5.2-2-8.8-2.4-10.4-0.8c-1.2,1.2-1.2,3.2-1.2,5.2
	c0,0.4,0,1.2,0,1.6c0.4,3.6,1.2,9.6-8.4,11.6c-3.6,0.8-6.8,0.8-9.6,1.2c-4,0.4-6.4,0.4-6.8,1.6c-0.4,0.4-0.4,0.8,0,1.2
	c0,0.4,1.6,1.6,8,1.6c22.4,0,37.2,2,45.6,6c9.2,4.4,10.4,10.8,10.4,16c0,5.6,5.2,7.6,12.8,9.6c5.6,1.6,11.2,3.2,10.4,8.4
	c-0.4,3.2,0.4,6.8,2.4,9.2c1.6,2,3.2,2.4,4.8,1.2c2-1.6,3.2-3.2,4-4.8c1.6-2.4,3.2-4.8,8-4.8c10.4,0,18.4,6.8,25.6,12.4
	c4.8,4,9.6,8,13.2,8c4,0,7.6-1.2,9.6-3.6c2-2,2.8-4.4,2.8-7.6C390.4,231.6,387.2,226,380.8,226z M315.2,207.6
	c-1.2,0.8-2.8,1.2-4.4,1.2l0,0c-2.8,0-5.6-1.2-7.2-3.2c-1.6-1.6-3.2-4.8-2.4-9.6c0.4-3.2,2.8-5.2,6.4-5.2c4.4,0,10.4,3.2,12,8
	C320,200.4,320.4,204.4,315.2,207.6z"/>
<g>
	<path style="fill:#FF9999;" d="M307.6,194.4c-2,0-2.4,1.2-2.4,1.6c-0.4,2.8,0,5.2,1.6,6.8c1.2,1.2,2.8,2,4.4,2c0.8,0,1.6,0,2-0.4
		c2.4-1.6,3.2-3.2,2.8-4.8C314.8,196.8,310.8,194.4,307.6,194.4z"/>
	<path style="fill:#FF9999;" d="M240.8,60c-1.6,0-3.2,0.4-4.8,0.8c-0.8,0.4-2.4,1.6-2.4,2l0,0c0,0,0.8,0.4,2.8,1.2
		c4.4,0.8,9.6,1.6,13.2,1.6c2.4,0,3.6-0.4,4.4-0.4C252.8,63.6,247.2,60,240.8,60z"/>
</g>
<path style="fill:#CDEEF9;" d="M184.8,60.8c6-2.8,23.6-6.4,35.2-7.6c4-0.4,13.2-0.8,22.4-1.6c7.2-0.4,16.8-1.2,24-1.6
	c-1.2,0-2.8-0.4-4-0.4c-8.4-0.8-15.6-1.2-18.4-4.8c-1.2-1.6-1.6-2.8-2.4-4c-1.6-3.2-2.4-5.2-8-5.6c-4-0.4-6.4-0.8-8.4-0.8
	c-2.4-0.4-3.6-0.8-6.8,0c-4,0.8-6.8,3.2-8.8,5.2l0,0c0.8,0.4,1.2,1.2,1.2,2c0,2-2,2.8-5.6,4c-4,1.2-7.6,2.4-10.8,2.8
	c-4.4,1.2-7.6,2-9.6,3.2c-0.4,0.4-1.2,0.8-2,1.6c-2.4,1.6-8,5.6-9.2,7.6c1.2,0.8,2.8,1.2,4.8,1.2C180.4,62.4,182.8,62,184.8,60.8z"
	/>
<path d="M298.4,479.2c-2,0-3.6-0.4-4.8-2.8c-2-4,2-6.8,8.8-12.4c2-1.6,4-3.2,5.2-4.4c3.2-3.2,12.4-10.4,28.4-8.4l0,0
	c5.2,0.8,6,4,6,5.2c0.4,10-39.6,22-40.4,22C300.8,478.8,299.6,479.2,298.4,479.2z M329.2,459.2c-8.8,0.4-14,4.4-16,6.4
	c-0.4,0.4-1.2,1.2-1.6,1.6C317.6,464.8,324.8,461.6,329.2,459.2z"/>
<path d="M250.8,465.6c-8.8,0-16-5.6-19.2-14.8c-3.2-9.6-1.6-23.6,9.6-32c2-2,8.4-17.6,6.4-28.8c-0.8-4-2.8-6.8-6-7.6
	c-7.6-2.8-6.4-11.6-5.2-18.4c0.4-3.2,1.6-9.2,0-10c-1.6-0.4-3.6-0.8-5.6-1.2c-8.4-1.6-19.6-4-20.8-20.8c-0.8-9.6-5.2-10.8-22.4-13.2
	c-5.6-0.8-12-1.6-19.2-3.2c-10.8-2.4-19.2-9.2-24-19.6c-6.8-15.6-4.4-36,2-46.4c12-20.4,30-28,40.8-32.4c5.6-2.4,6-5.6,7.2-10
	c0.8-3.2,1.6-6.8,4-10.4c4-5.2,10.4-9.2,15.6-12.4c1.6-0.8,3.2-2,4.4-2.8c-0.4-0.4-1.2-1.2-2-2l-0.8-0.8c-3.6-3.2-5.2-11.2-5.2-18
	c0-6,1.2-17.2,9.6-24.4c9.6-8.4,16-4.4,21.6-0.8c2,1.2,3.6,2.4,6,3.2c2,0.8,3.2,1.2,4,0.8c1.6-0.8,2.4-3.6,3.2-6
	c-0.4-0.8-2.4-2.4-3.6-3.6c-3.6-3.2-10-8.8-4.8-14.8c0.8-1.2,1.6-1.6,2.8-2c-0.8-0.8-1.6-2-1.6-3.2c-0.4-2,0-4,1.2-5.6
	c-3.6,1.2-7.2,1.2-11.2-1.6c-2.8-2-4-6-3.2-10c1.6-6,7.2-10.4,15.2-11.6c1.2-0.4,2.4,0,3.2,0c0-0.4-0.4-0.8-0.4-1.2
	c-0.8-3.6,0.8-6.8,4-8c5.2-2.4,17.6-1.2,20.4,2.4c3.6,4.8,2.4,8.4-0.8,12.4c-0.8,1.2-0.8,1.2,2.4,4.4c5.2,4.8,7.6,8.8,7.6,12.8
	c0,2-0.8,3.6-1.6,4.8c0.4-0.4,1.2-0.4,1.6-0.8c5.2-2.4,11.2-5.2,17.2-4.8c0-0.4-0.4-0.4-0.4-0.8c-0.4-1.2-0.8-2-1.2-3.2
	c-0.8-2.8,0-5.2,1.6-7.6c0.4-0.4,0.8-0.8,0.8-1.2c-1.6-0.8-2.8-1.6-4-2.8c-3.2-3.2-4.8-7.6-4-12c1.6-10.8,14-12,20.8-12.4h2
	c1.2,0,4-0.8,6.8-2c8.4-2.4,20.8-6.4,32.8-4c8,1.6,18,6.8,27.2,11.6c5.6,2.8,12.8,6.4,16.8,7.6c0-0.4,0-1.2,0-1.6
	c0-1.2,0.8-3.2,3.2-4.4c3.6-2,8-1.6,12,0.8c3.2,2,4.8,4.8,4.4,7.6c0,2-1.2,3.2-2.8,4.4c0.8,1.2,2.8,3.6,7.6,4.4c0.8,0,0.8,0,2-0.8
	c1.2-1.2,3.6-3.2,7.2-2.4c2.4-2.4,3.2-2.8,4.8-2.8c1.2,0,2,0.4,2.8,1.2c1.6,1.6,1.2,4-0.4,5.6l-0.4,0.4C442,89.6,440,92,440,92
	c-1.2,1.2-3.2,1.6-4.8,0.8c-0.4-0.4-0.8-0.4-0.8-0.4l-0.4,0.4c-1.6,1.2-4,3.6-8.8,2.8c-8.8-1.6-14-7.2-14.4-12c0-0.4,0-0.4,0-0.8
	c-1.6,1.6-4,2-5.2,2c-5.2,0.8-12.4-2.8-24-8.8c-8.4-4.4-18-9.2-25.2-10.8c-10-2-21.2,1.6-28.8,4c-3.6,1.2-6,2-8,2c-0.8,0-1.2,0-2,0
	c-6.8,0.4-12.8,1.6-13.2,5.6c-0.4,2.4,0.8,4,1.6,4.8c1.6,1.2,3.6,2,5.2,1.6c1.2-0.4,5.6-1.2,7.6,1.6c1.2,1.6,1.2,3.6,0.4,5.6
	c-1.2,2.4-4.4,4.8-7.6,4.8c-0.4,0-1.2,0.4-1.6,0.8c0,0.4-0.4,0.4,0,0.8c0,0.4,0.4,1.2,0.8,2c1.2,2.8,3.2,6.8,0.8,10
	c-1.6,2-4,2.8-7.2,2c-4-0.8-9.6,2-14,4c-5.6,2.4-9.6,4.4-13.2,2.4c-0.4-0.4-0.8-0.4-1.2-0.8c0,0.4-0.4,0.8-0.4,1.2
	c-2.8,4-10,4.8-16,4c-2.4-0.4-4-0.8-5.2-1.2c0.8,1.2,2.4,2.4,3.2,3.2c3.6,3.2,7.2,6.8,6,11.2c-1.2,4-2.8,9.2-7.6,11.2
	c-3.2,1.2-6.4,1.2-10.8-0.4c-2.8-1.2-4.8-2.4-6.8-4c-5.2-3.2-7.2-4.4-12,0c-5.2,4.8-6.4,12.4-6.8,16.4c-0.4,7.6,1.6,12.8,2.4,14
	l0.8,0.8c3.2,2.8,8,6.8,3.6,12.4c-1.2,1.6-3.6,3.2-7.2,5.2c-4.4,2.4-10.4,6-13.2,10c-1.6,2-2,4.4-2.8,7.2c-1.2,5.2-2.4,12-12,15.6
	c-10.4,4.4-26.4,11.2-36.8,29.2c-5.2,8.8-7.2,26.4-1.6,39.2c3.6,8.4,9.6,13.2,18.4,15.2c7.2,1.6,13.2,2.4,18.8,3.2
	c16.4,2.4,28,4,29.2,20.4c0.8,10.8,6,12,14.4,13.6c2,0.4,4.4,0.8,6.8,1.6c8,2.4,6.4,12,5.6,18.8c-0.4,2.8-1.2,9.2,0,9.6
	c4.4,1.6,10,5.2,11.2,14.8c2,12.8-4.4,31.6-9.6,35.2c-7.6,5.6-9.2,16-6.8,23.2c0.8,2.8,4,9.2,11.6,9.2c32.4,0,61.2-19.2,86.8-36.4
	c18.4-12.4,34-22.8,48.4-24.4c24.4-2.4,30-10.8,29.6-13.2c0-0.8-0.4-1.2-0.8-1.2c-7.2-0.4-20.4-2.4-26.8-11.2
	c-3.2-4.4-4.4-10-2.8-16c10.4-45.6-0.4-68.8-5.2-80c-2-4.8-3.6-8-1.6-10.8s5.2-2.4,6.8-2.4c26.8,1.6,25.2,33.2,24,58.8
	c-0.8,12.4-1.2,24.4,1.2,30.4c0.4,1.2,2,4.8,10.4,4c18.4-1.2,47.6-20.4,50-28.4c1.2-4-1.6-11.6-5.2-14.8c-1.6-1.2-2.4-0.8-2.8-0.8
	c-4.4,2.4-8,2.8-11.2,1.6c-4.8-2-7.2-7.6-8.8-12.8c-2.8-8.8-2.8-14.4,0.4-18c1.2-1.2,3.6-3.2,8-2.4c4,0.8,5.6,4.8,6.8,8
	c0.4,1.2,1.6,4,2.4,4.4c0,0,0.4,0,0.8-0.4c3.2-1.6,6.4-2,9.6-1.2c6.4,2,10.4,8.8,12.4,12.4c3.6,7.6,8.4,10.4,11.2,11.2
	c0.8-0.4,1.6-0.4,2.4,0c2,0.4,3.2,2.8,2.8,4.8l0,0c0,0.4,0,0.4,0,0.8c-0.4,2-2.4,3.2-4.4,2.8c-0.4,0-12-1.6-19.2-16
	c-2-4.4-5.2-7.6-7.6-8.4c-1.2-0.4-2-0.4-3.2,0.4c-2.8,1.6-5.2,2-7.6,1.2c-4-1.2-5.6-5.6-7.2-8.8c-0.4-1.2-1.2-2.8-1.6-3.2
	c-0.4,0-0.4,0-0.4,0s-0.8,2.4,1.6,10c2,5.6,3.2,7.6,4.4,8c0.8,0.4,2.4,0,4.4-1.2c3.6-2,8-1.2,11.6,1.6c6,4.8,10,16,8,23.2
	c-3.6,12.8-37.2,32.8-57.2,34c-11.6,0.8-16.4-4.4-18.4-8.8c-3.2-7.6-2.8-20-2-34c1.6-28,1.2-48-14.4-50.4c0.4,0.8,0.4,1.2,0.8,2
	c4.8,11.2,16.4,36.8,5.6,85.2c-0.8,3.6-0.4,6.8,1.6,9.2c3.2,4.4,10.8,7.2,20.8,8c4.8,0.4,8.4,4,8.4,8.8c0,8.4-9.6,18.8-37.2,21.6
	c-12.4,1.2-27.2,11.2-44.8,22.8C315.6,445.6,286,465.6,250.8,465.6z M255.2,108.4c0.8,0,1.6,0,2.4,0c8.8,0,12.8,1.2,14.8,2.8
	c0.4-2,2-3.6,3.2-4.8c0.8-0.8,1.6-1.6,1.6-2s-0.4-2.4-5.2-6.8c-3.6-3.2-8.4-8-3.6-14.8c1.2-1.6,1.2-2.4,1.2-2.4l0,0c0,0,0,0-0.4-0.4
	c-2-0.8-8-1.6-10.4-0.8c0.4,0.8,0.4,1.2,0.8,2c0.8,1.6,2,4.4,1.6,6.8c0.4,0,0.8,0.4,1.2,0.4c2.4,1.6,4,4,3.6,6.8
	c-0.4,5.2-6,10-9.2,11.2C256.8,107.2,256,108,255.2,108.4z M250,89.6c-6,1.2-8.4,3.6-8.8,5.6c-0.4,0.8,0,1.6,0,1.6
	c2.8,2,5.6,0.4,10.8-4.4c0.4-0.4,0.8-0.4,0.8-0.8c-0.8-0.4-1.6-0.8-2-1.2C250.8,90.4,250,90,250,89.6z M410.8,78.4
	c0,0.4,0.4,0.8,0.4,1.2c0.4-0.4,0.4-0.4,0.8-0.8C411.6,78.8,411.2,78.4,410.8,78.4z"/>
<path d="M254,508C114,508,0,394,0,254S114,0,254,0s254,114,254,254S394,508,254,508z M254,8C118.4,8,8,118.4,8,254
	s110.4,246,246,246s246-110.4,246-246S389.6,8,254,8z"/>
<path d="M15.6,194c-1.2,0-2-0.4-2.8-1.2c-0.8-0.8-1.2-2.4-0.8-3.6l0.4-1.2c0.4-2,2-2.8,4-3.2c0,0,0,0,0.4-0.4c0.8-0.8,1.2-2.4,2-5.6
	c0.4-2,0.8-4,1.2-6.4c2-8,7.2-17.6,14.4-21.2c1.6-0.8,2.4-2.8,4-6.4c1.2-3.2,3.2-7.6,6.8-11.6c2.8-3.6,5.2-6.8,6.8-9.2
	c2.4-3.6,4.4-6,6.4-7.6c0.8-0.4,2.4-2.4,4-4c4.4-4.4,9.6-10,14.8-12c3.6-1.2,5.6-1.6,7.6-0.4c0,0,0.4,0,2.4-0.4
	c3.6-0.8,6.4-1.6,8.4-2.8c-0.8-0.4-1.2-1.2-1.2-1.6C92,90.8,97.2,84.4,99.2,82c0.4-0.4,0.4-0.4,0.4-0.8c2-3.2,4.4-2.8,7.2-1.6
	c0.8-2,2.8-4.8,7.2-5.2c1.2,0,4.4-0.4,6,2c1.2-1.2,2.4-2,4-3.2l1.6-1.2c2.8-2,5.2-6.4,5.2-7.6c0-2,0.4-9.2,3.2-12.8
	c0.8-1.2,2.4-2.4,3.6-4.4c-2.8-0.4-3.6-2.4-4-3.6c-0.4-0.8,0-2,0.4-2.4c-2,0-3.6-1.2-4-3.2s0.8-4.4,3.2-4.8l2-0.4
	c4.8-1.2,8.8-2,11.2,0.4c1.2,1.2,1.6,2.4,1.6,4c1.2,0,2.4,0.8,3.2,2c1.2,2,0.8,4-1.2,6.4c-1.6,2-3.6,4-5.2,5.6c-2,2-3.6,3.6-4.4,4.8
	c-0.8,1.2-1.6,5.6-1.6,7.6c0.4,4-3.6,10.4-7.6,13.6c2,2.4,0,5.2-1.6,8c-2,2.8-8.4,12-14.4,13.2c-2,0.4-3.6-0.4-4.8-0.8
	c-0.4,0-1.2-0.4-2-0.4s-1.2-0.4-2-0.4l0,0c-4,6.4-10,8.8-17.6,10.4c-3.6,0.8-5.6,0.4-7.2,0c-0.4,0-0.8,0.4-1.6,0.4
	c-3.2,1.2-8.4,6.4-11.6,10c-2.8,2.8-4.4,4.4-5.6,5.2c-0.8,0.4-2.4,2.8-4,5.2c-2,2.8-4,6-7.2,9.6c-2.8,3.2-4,6.4-5.2,9.6
	c-1.6,4-3.2,8-7.6,10.4c-4,2-8.4,8.8-10.4,16c-0.4,2.4-0.8,4-1.2,6c-0.8,3.6-1.2,7.2-4,10c-2,2-3.6,3.2-5.6,3.6
	C16,194,16,194,15.6,194z M111.2,90.4c0.8,0.4,1.6,0.4,2.4,0.8c1.2-0.8,3.6-2.8,6.4-6.4c-0.4-0.4-1.2-0.8-1.2-1.2
	c-1.2,1.6-3.2,2.8-5.6,4.8L111.2,90.4z"/>
<path d="M460.4,244.8c-1.6,0-3.6-0.4-6-2c-8.8-5.6-7.2-11.2-5.2-17.6l0.8-2c0.8-2.8-1.6-8.8-4-14.4c-2-4.8-4.4-10.4-5.6-16
	c-1.2-4.8,0.4-8,2-9.6c4-4.4,11.2-3.2,14.4-2.8c5.2,0.8,9.2,4.8,8.8,8.8c0,2.4-2,5.2-6,6c0.8,2.4,2.8,5.6,4.4,8.4
	c4.4,8.4,9.6,18,8.8,24.8l0,0c-0.8,4.4-2.8,12.4-8.4,15.2C463.2,244.4,462,244.8,460.4,244.8z M451.2,188.4c-2,0-2.8,0.4-3.2,0.8
	s-0.4,1.2,0,2.4c0.8,4.8,3.2,9.6,5.2,14.4c3.2,7.2,6,14.4,4.4,20l-0.8,2c-2,6-2,6,1.6,8.4c0.8,0.4,1.6,0.8,2,0.4
	c1.2-0.4,2.8-3.2,4-8.8l0,0c0.8-4-4.4-13.6-7.6-19.6c-4.8-8.8-7.2-13.6-5.2-17.2c0.8-1.2,1.6-1.6,2.8-2
	C453.2,188.4,452,188.4,451.2,188.4z"/>
<path d="M418.4,210c-4.4,0-8.8-3.2-14-6.8c-2.8-2-5.6-4-8.4-5.6c-2.8-1.2-3.2-1.2-5.2-0.8c-2.4,0.4-6,1.6-12.8,0
	c-6.4-1.2-10.8-6.4-10.8-13.2c0-7.2,4.4-15.6,11.6-17.6c8.8-2,13.6,3.2,18.8,9.6c1.6,2,4.4,2,9.6,2c2.4,0,5.2,0,8,0.4
	c8.4,1.2,13.6,6.8,13.6,15.6c0,7.2-3.2,15.2-8.4,16C419.2,210,418.8,210,418.4,210z M392.8,188.4c2,0,4,0.4,6.8,2
	c3.2,1.6,6.4,4,9.6,6c2.8,2,7.2,5.2,8.8,5.2c1.2-1.2,3.2-6.4,2-10.8c-0.8-3.2-2.8-4.8-6.4-5.2l0,0c-2.4-0.4-4.8-0.4-6.8-0.4
	c-5.6,0-11.6,0-15.6-5.2c-5.2-6.4-7.2-7.6-10.8-6.8c-2.8,0.8-5.6,5.2-5.2,9.6c0,4.8,3.2,5.2,4.4,5.6c5.2,0.8,7.6,0.4,9.6,0
	C390.4,188.8,391.6,188.4,392.8,188.4z"/>
<path d="M378,253.6c-6,0-11.2-4.4-17.2-9.2c-6.4-5.2-13.6-11.2-21.6-11.2c-1.2,0-1.6,0-2.8,2.4c-1.2,1.6-2.8,4-5.6,6.4
	c-3.2,2.4-6.8,2.8-10,0.8c-4.8-2.8-7.6-9.6-6.8-16c-1.2-0.8-4-1.6-6-2c-6.8-2-17.2-4.8-17.2-15.6c0-4.4-1.2-8-6.8-10.8
	c-7.6-3.6-21.6-5.6-43.2-5.6c-7.2,0-11.2-1.2-13.2-4.4c-0.8-1.2-2-3.6-0.4-6.8c2-4.8,7.2-5.2,12-5.6c2.4,0,5.6-0.4,8.8-0.8
	c4.4-0.8,4.4-1.6,3.6-5.2c0-0.8,0-1.6-0.4-2.4c0-2.4,0-7.6,4-10.4c3.6-2.4,8.4-2.4,15.6,0.4c2.4,0.8,2.4,0.8,4-1.6
	c1.2-1.6,2.8-4,5.6-5.2c12.8-5.6,25.2,9.6,28.8,14.4c2.8,3.6,4.8,8.8,7.2,14c1.6,4,4,9.6,5.6,10.8c0.8,0,3.2-1.2,5.2-4
	c-0.8-2.4-4.4-7.6-6.8-11.2c-6.8-10-12-17.6-6.4-22c2.4-1.6,5.2-2,8-1.2c4.4,1.6,11.2,6.8,16.8,23.6c1.2,4,2.4,14.4,2.4,26.4
	c0,2,0.4,4.4,2,5.2c1.2,0.8,2.8,0.8,3.6,0.4c0.4-0.8,0.4-3.2,0.8-4.4c0.4-5.2,1.6-14,10-14.4c2.8,0,4.8,1.2,6,2.4
	c3.2,3.2,2.8,9.2,2.4,14.8c0,1.6-0.4,3.2-0.4,4.8c0,9.6,14.8,9.6,14.8,9.6c10,0,16,8.4,16,16.8c0,4.4-1.6,8.8-4.8,11.6
	C389.6,250.8,385.2,253.6,378,253.6z M339.2,225.2c10.8,0,19.6,7.2,26.8,13.2c4.8,3.6,8.8,7.2,12,7.2c3.6,0,6.4-0.8,8.4-2.8
	c1.6-1.6,2.4-3.6,2.4-6c0-4.4-2.8-8.8-8-8.8c-11.2,0-22.8-5.6-22.8-17.6c0-1.6,0-3.6,0.4-5.2c0-2.8,0.4-7.6-0.4-8.8l0,0
	c-1.2,0-1.6,4.4-2,7.2c-0.4,4.4-0.8,8.4-4.4,10.4c-3.6,2-8.4,2-12,0c-2.4-1.2-6-4.8-6-12c0-4,0-7.2-0.4-10.4c-4,4.8-9.6,7.6-13.6,6
	c-4-1.2-6.4-6.4-10-15.2c-2-4.4-4-9.6-6-12.4c-5.6-7.6-14-14-19.2-12c-0.8,0.4-1.6,1.2-2.4,2.4c-2,2.4-5.2,7.2-13.2,4.4
	c-6.4-2.4-8-1.6-8-1.6s-0.8,0.4-0.4,4c0,0.4,0,0.8,0,1.6c0.4,3.6,1.6,11.6-10,14c-3.6,0.8-7.2,0.8-9.6,1.2c-0.8,0-2,0-2.8,0.4
	c0.8,0,2.4,0.4,4,0.4c22.8,0,37.6,2,46.4,6.4c10.4,4.8,11.6,12.8,11.6,18c0,4,3.6,5.6,11.6,7.6c5.6,1.6,13.2,3.6,12,10.4
	c-0.8,3.6,1.2,7.2,2.8,8.4c0.4,0.4,0.8,0.4,1.2,0c2-1.2,2.8-2.8,3.6-4.4C331.2,228.4,333.2,225.2,339.2,225.2z M320.4,160
	c1.2,2.8,4.4,7.6,6.8,10.8c1.6,2,2.8,4,4,6C327.2,166,323.2,161.2,320.4,160z"/>
<path d="M311.2,210.8c-2,0-4.4-0.8-6.4-2c-4.4-2.8-6.4-7.6-5.2-13.6l0,0c0.4-4,3.2-6.4,7.2-6.8c5.2-0.4,12.8,3.2,14.8,8.8
	c1.6,4.4-0.4,8.8-4.8,11.6C314.8,210.4,313.2,210.8,311.2,210.8z M307.2,196.4c-0.4,2,0,4.4,1.6,5.6c1.2,0.8,2.4,0.8,2.8,0.4
	c2.4-1.6,2-2.4,1.6-2.8C312.4,197.6,308.8,196.4,307.2,196.4z"/>
<path d="M249.2,71.6c-5.6,0-11.6-1.2-14-1.6c-6.4-1.2-7.6-4.4-7.6-6.8c0-4.4,4.8-7.6,6.8-8l0,0c8.4-2.4,17.2,0.4,21.6,4
	c2.4,2,4,4,3.6,6.4c0,1.6-0.8,2.8-2,4C256,71.2,252.8,71.6,249.2,71.6z M238.8,62.4c3.2,0.8,6.4,0.8,8.8,1.2
	C245.2,62.4,242,62,238.8,62.4z"/>
<path d="M178.4,68.4c-3.6,0-6.8-1.2-9.2-3.2c-1.2-1.2-1.6-2.4-1.6-4.4c0.4-4,4.8-7.6,12-12.4c0.8-0.4,1.6-1.2,2-1.6
	c2.8-2,6.8-3.2,11.6-4.4c2.8-0.8,6-1.6,9.6-2.4l0,0c0-0.8,0-2.8,2-4c0.4-0.4,0.8-0.8,1.2-1.2c2.4-2,6-5.6,12-6.4c4-0.8,6-0.4,8.8,0
	c1.6,0.4,4,0.8,7.6,0.8c9.2,0.4,11.6,5.2,13.2,8.8c0.4,1.2,1.2,2,1.6,3.2c1.2,1.2,9.2,2,14,2.4c5.6,0.4,11.6,0.8,16.4,2.4l0,0l0,0
	c2.8,0.8,3.6,3.2,3.6,4.8c-0.4,4.4-0.4,4.4-40,6.8c-9.6,0.4-18.4,1.2-22.4,1.6c-12,1.2-28.4,4.8-33.2,7.2
	C184.4,67.6,181.2,68.4,178.4,68.4z M177.2,60.4c1.6,0.4,4.4,0,6.8-1.2c6.4-2.8,24-6.4,35.6-7.6c4-0.4,12.8-0.8,22.8-1.6
	c1.6,0,3.2,0,4.8-0.4c-2-0.8-3.6-1.6-4.4-3.2c-1.2-1.6-2-3.2-2.8-4.4c-1.6-3.2-2-4-6.4-4.4s-6.8-0.8-8.4-1.2c-2.4-0.4-3.2-0.4-6,0
	s-4.8,2-6.4,3.2c0.4,0.4,0.4,1.2,0.4,2c0,3.6-4,4.8-7.2,6c-4,1.2-7.6,2.4-10.8,3.2c-4,0.8-7.2,1.6-8.8,2.8c-0.8,0.4-1.2,0.8-2,1.6
	C182.4,56,179.2,58.4,177.2,60.4z M277.2,54L277.2,54l1.2-4L277.2,54z"/>
<g>
</g>
<g>
</g>
<g>
</g>
<g>
</g>
<g>
</g>
<g>
</g>
<g>
</g>
<g>
</g>
<g>
</g>
<g>
</g>
<g>
</g>
<g>
</g>
<g>
</g>
<g>
</g>
<g>
</g>
</svg>
